<svg xmlns="http://www.w3.org/2000/svg" viewBox="0 0 976.97 69.84"><path d="M95.18,39.31H66.08V85.87H40.86V39.31H11.76V18H95.18Z" transform="translate(-11.76 -17)"/><path d="M188.3,18v67.9H163.08V62.59H123.31V85.87H98.09V18h25.22V41.25h39.77V18Z" transform="translate(-11.76 -17)"/><path d="M217.4,37.37v6.3H264V60.16H217.4v6.31H264v19.4H192.18V18H264v19.4Z" transform="translate(-11.76 -17)"/><path d="M345.73,48.91h44v37H375.22l-1.84-9.8c-5.73,6.69-14.65,10.77-28.91,10.77-25,0-39.77-11.35-39.77-35S319.44,17,347.38,17c27.16,0,41.32,9.5,42.39,28H364c-1-3.49-5.92-6.69-16.59-6.69-14.94,0-17.46,6.3-17.46,14.45s2.62,15.62,17.46,15.62c9.7,0,15.62-1.36,16.59-5.92H345.73Z" transform="translate(-11.76 -17)"/><path d="M391.71,51.82c0-23.57,12.8-34.82,42.68-34.82s42.68,11.35,42.68,34.82-12.9,35-42.68,35S391.71,75.49,391.71,51.82Zm60.14,0c0-7.08-2.52-13.48-17.46-13.48s-17.46,6.3-17.46,13.48,2.62,13.68,17.46,13.68S451.85,59,451.85,51.82Z" transform="translate(-11.76 -17)"/><path d="M505.2,85.87H480V18H505.2Z" transform="translate(-11.76 -17)"/><path d="M596.57,18v67.9h-33L534.3,45.81V85.87H509.08V18h33L571.35,58V18Z" transform="translate(-11.76 -17)"/><path d="M639.54,48.91h44v37H669l-1.84-9.8c-5.73,6.69-14.65,10.77-28.91,10.77-25,0-39.77-11.35-39.77-35S613.25,17,641.19,17c27.16,0,41.32,9.5,42.39,28h-25.8c-1-3.49-5.92-6.69-16.59-6.69-14.94,0-17.46,6.3-17.46,14.45s2.62,15.62,17.46,15.62c9.7,0,15.62-1.36,16.59-5.92H639.54Z" transform="translate(-11.76 -17)"/><path d="M710.74,61.91c0,3.3,3.1,5.53,19.11,5.53,14.93,0,17.17-1,17.17-3.49,0-2.91-2.24-3.3-18.14-3.79-30.66-1-42.39-6-42.39-21.82C686.49,23.4,701.13,17,727.91,17c26.48,0,41.42,6.4,41.42,23.76H744.11c0-3.59-5.82-4.36-18.14-4.36-11.84,0-14.26.58-14.26,3.2s2.42,2.52,17.17,3.1c26.77,1.07,43.36,2.91,43.36,20.66,0,18.72-15.53,23.48-43.36,23.48s-43.36-4.76-43.36-24.93Z" transform="translate(-11.76 -17)"/><path d="M813,51.82C813,28.25,825.78,17,855.65,17s42.68,11.35,42.68,34.82-12.9,35-42.68,35S813,75.49,813,51.82Zm60.14,0c0-7.08-2.52-13.48-17.46-13.48s-17.46,6.3-17.46,13.48,2.62,13.68,17.46,13.68S873.11,59,873.11,51.82Z" transform="translate(-11.76 -17)"/><path d="M988.74,18v67.9h-33l-29.3-40.06V85.87H901.24V18h33L963.52,58V18Z" transform="translate(-11.76 -17)"/></svg>